<?xml version="1.0" encoding="utf-8"?>
<!-- Generator: Adobe Illustrator 22.1.0, SVG Export Plug-In . SVG Version: 6.00 Build 0)  -->
<svg version="1.1" id="Layer_1" xmlns="http://www.w3.org/2000/svg" xmlns:xlink="http://www.w3.org/1999/xlink" x="0px" y="0px"
	 viewBox="0 0 70 70" style="enable-background:new 0 0 70 70;" xml:space="preserve">
<style type="text/css">
	.st0{fill:#FFFFFF;}
	.st1{fill:#008BA8;}
	.st2{fill:none;stroke:#008BA8;stroke-width:10;stroke-linecap:round;stroke-linejoin:round;}
</style>
<g>
	<path class="st0" d="M34.9,66c-17.1,0-31-13.9-31-31s13.9-31,31-31c17.1,0,31,13.9,31,31S52,66,34.9,66z"/>
	<path class="st1" d="M34.9,7c15.4,0,28,12.6,28,28s-12.6,28-28,28s-28-12.6-28-28S19.5,7,34.9,7 M34.9,1c-18.8,0-34,15.2-34,34
		s15.2,34,34,34s34-15.2,34-34S53.7,1,34.9,1L34.9,1z"/>
</g>
<path class="st2" d="M21.1,40.4l13.8-14.8l13.8,14.8"/>
</svg>
