<svg width="171" height="140" viewBox="0 0 171 140" fill="none" xmlns="http://www.w3.org/2000/svg">
<path d="M164.925 117.842C164.925 124.982 159.563 130.653 152.7 131.703C149.269 135.694 144.336 138.424 138.76 139.264C133.184 140.104 127.822 139.054 123.533 136.534C120.745 135.064 117.528 135.064 114.74 136.534C111.308 138.424 107.233 139.474 103.158 139.474C98.4401 139.474 94.1507 138.214 90.5048 135.694C87.9312 134.223 84.9287 134.223 82.3551 135.694C78.7092 138.004 74.4198 139.474 69.7016 139.474C64.3399 139.474 59.6217 137.794 55.5468 134.854C52.9732 132.963 49.3273 132.963 46.7537 134.854C42.2499 138.214 36.2448 140.104 30.0253 139.264C24.2347 138.634 18.873 135.904 15.2271 131.703C14.7982 131.703 14.5837 131.703 14.1548 131.703C6.21952 131.703 0 125.402 0 117.842C0 110.491 5.79059 104.61 12.868 103.98C18.0152 94.739 21.2322 84.4479 21.2322 73.7366V72.0565C21.2322 40.3429 45.2524 12.8298 77.6368 9.46937C97.7967 7.36913 116.241 14.5099 129.323 27.3214C140.904 38.6627 147.982 53.9944 147.982 71.2164V80.0374C147.982 88.6483 150.555 97.0493 155.274 104.61C155.274 104.61 155.274 104.61 155.274 104.82C160.85 106.5 164.925 111.751 164.925 117.842Z" fill="url(#paint0_linear_2116_10)"/>
<path d="M72.2752 61.1352C72.0608 62.8154 71.6318 64.2855 70.9884 65.7557C68.2004 73.3166 61.7664 78.1471 55.3324 77.097C47.6116 75.8369 42.8933 66.5958 44.6091 56.7247C46.3248 46.6436 53.8311 39.7128 61.5519 40.7629C61.5519 40.7629 61.5519 40.7629 61.7664 40.7629C69.0582 42.023 73.991 51.0541 72.2752 61.1352Z" fill="white"/>
<path d="M96.7244 61.1352C96.9389 62.8154 97.3678 64.2855 98.0112 65.7557C100.799 73.3166 107.233 78.1471 113.667 77.097C121.388 75.8369 126.106 66.5958 124.391 56.7247C122.675 46.6436 115.168 39.7128 107.448 40.7629C107.448 40.7629 107.448 40.7629 107.233 40.7629C99.7269 42.023 95.0087 51.0541 96.7244 61.1352Z" fill="white"/>
<path d="M62.4096 42.2332C61.7662 42.0232 61.1228 42.0232 60.4794 42.0232C58.9782 42.0232 57.4769 42.4432 56.1901 43.2833C58.5492 43.7034 60.4794 45.5936 60.4794 48.1139C60.4794 50.8442 58.3348 52.9444 55.5467 52.9444C52.9731 52.9444 51.0429 51.2642 50.614 48.744C49.3272 50.8442 48.4693 53.1545 48.0404 55.8848C46.5391 64.4957 50.8284 72.4766 57.2624 73.5268C62.1952 74.3669 67.1279 71.2165 69.9159 65.9659C70.9883 64.0757 71.6317 61.9755 72.0606 59.8752C73.1329 51.2642 69.0581 43.2833 62.4096 42.2332Z" fill="url(#paint1_linear_2116_10)"/>
<path d="M121.173 56.0948C119.886 48.324 114.31 42.4433 108.52 42.2333C107.876 42.2333 107.233 42.2333 106.59 42.4433C105.303 42.6533 104.23 43.0734 103.158 43.7034C103.587 43.4934 104.016 43.4934 104.445 43.4934C107.233 43.4934 109.378 45.5937 109.378 48.324C109.378 51.0543 107.233 53.1545 104.445 53.1545C101.657 53.1545 99.5122 51.0543 99.5122 48.324C99.5122 47.9039 99.5122 47.2738 99.7266 46.8538C97.3675 50.2142 96.2952 55.0447 97.1531 60.0853C97.582 62.3956 98.2254 64.4958 99.2977 66.176C102.086 71.4266 107.019 74.5769 111.951 73.7368C118.385 72.6867 122.675 64.7058 121.173 56.0948Z" fill="url(#paint2_linear_2116_10)"/>
<path d="M167.498 29.2118C162.137 34.8825 152.7 34.8825 146.266 29.2118C141.977 25.4314 136.186 24.1713 131.253 25.4314C131.682 20.8109 133.613 15.9803 137.258 11.9899C140.69 8.20946 145.194 5.8992 149.912 4.84908C155.488 3.79897 161.064 5.05911 165.354 8.62951C172.002 14.3002 172.86 23.5412 167.498 29.2118Z" fill="url(#paint3_linear_2116_10)"/>
<path d="M3.43139 24.1712C8.36411 30.0518 18.0151 30.4719 24.6636 25.2213C29.1674 21.6509 34.9579 20.6008 39.8907 22.0709C39.6762 17.4504 37.9605 12.4098 34.529 8.41939C31.0976 4.42893 26.8082 1.69863 22.3044 0.648506C16.7283 -0.82166 10.9377 0.228459 6.64838 3.58884C-7.47337e-05 9.04946 -1.50134 18.2905 3.43139 24.1712Z" fill="url(#paint4_linear_2116_10)"/>
<path d="M58.7638 73.7369C62.3172 73.7369 65.1978 71.8563 65.1978 69.5364C65.1978 67.2166 62.3172 65.3359 58.7638 65.3359C55.2104 65.3359 52.3298 67.2166 52.3298 69.5364C52.3298 71.8563 55.2104 73.7369 58.7638 73.7369Z" fill="#8BD2D0"/>
<path d="M110.021 73.7366C113.456 73.7366 116.241 71.9501 116.241 69.7462C116.241 67.5423 113.456 65.7557 110.021 65.7557C106.586 65.7557 103.802 67.5423 103.802 69.7462C103.802 71.9501 106.586 73.7366 110.021 73.7366Z" fill="#8BD2D0"/>
<path d="M51.2572 58.615C52.6786 58.615 53.8308 57.4867 53.8308 56.0947C53.8308 54.7028 52.6786 53.5745 51.2572 53.5745C49.8358 53.5745 48.6836 54.7028 48.6836 56.0947C48.6836 57.4867 49.8358 58.615 51.2572 58.615Z" fill="#8BD2D0"/>
<path d="M100.156 58.1947C101.577 58.1947 102.729 57.0664 102.729 55.6745C102.729 54.2825 101.577 53.1542 100.156 53.1542C98.7343 53.1542 97.582 54.2825 97.582 55.6745C97.582 57.0664 98.7343 58.1947 100.156 58.1947Z" fill="#8BD2D0"/>
<defs>
<linearGradient id="paint0_linear_2116_10" x1="82.3313" y1="9.18521" x2="82.3313" y2="139.529" gradientUnits="userSpaceOnUse">
<stop stop-color="#3DC0C3"/>
<stop offset="1" stop-color="#0077B3"/>
</linearGradient>
<linearGradient id="paint1_linear_2116_10" x1="59.752" y1="73.8275" x2="59.752" y2="42.1557" gradientUnits="userSpaceOnUse">
<stop stop-color="#3DC0C3"/>
<stop offset="1" stop-color="#0077B3"/>
</linearGradient>
<linearGradient id="paint2_linear_2116_10" x1="109.18" y1="73.8276" x2="109.18" y2="42.1558" gradientUnits="userSpaceOnUse">
<stop stop-color="#3DC0C3"/>
<stop offset="1" stop-color="#0077B3"/>
</linearGradient>
<linearGradient id="paint3_linear_2116_10" x1="149.393" y1="4.85875" x2="152.379" y2="33.9705" gradientUnits="userSpaceOnUse">
<stop stop-color="#3DC0C3"/>
<stop offset="1" stop-color="#0077B3"/>
</linearGradient>
<linearGradient id="paint4_linear_2116_10" x1="18.2319" y1="-0.155801" x2="21.1573" y2="28.3596" gradientUnits="userSpaceOnUse">
<stop stop-color="#3DC0C3"/>
<stop offset="1" stop-color="#0077B3"/>
</linearGradient>
</defs>
</svg>
